<svg width="30" height="30" viewBox="0 0 30 30" fill="none" xmlns="http://www.w3.org/2000/svg">
<path d="M16.25 30H13.75C12.7163 30 11.875 29.1588 11.875 28.125V25.7975C11.075 25.5662 10.305 25.2469 9.57438 24.8431L7.92813 26.49C7.21938 27.1987 5.985 27.1975 5.27625 26.49L3.50812 24.7225C3.15375 24.3687 2.95875 23.8975 2.95875 23.3969C2.95875 22.8963 3.15375 22.425 3.50812 22.0712L5.155 20.4238C4.75187 19.695 4.4325 18.925 4.20188 18.1244H1.875C0.84125 18.1244 0 17.2831 0 16.2494V13.7494C0 13.2481 0.195 12.7775 0.54875 12.4237C0.903125 12.07 1.37375 11.8744 1.875 11.8744H4.2025C4.43375 11.0756 4.7525 10.305 5.15625 9.575L3.51 7.92813C2.77875 7.19688 2.77875 6.00812 3.51 5.27688L5.2775 3.50875C5.98563 2.80125 7.22063 2.8 7.92938 3.50875L9.57625 5.15562C10.3062 4.7525 11.0763 4.43313 11.875 4.2025V1.875C11.875 0.84125 12.7163 0 13.75 0H16.25C17.2838 0 18.125 0.84125 18.125 1.875V4.2025C18.925 4.43375 19.695 4.75312 20.4238 5.15562L22.0706 3.50875C22.7794 2.80125 24.0138 2.8 24.7225 3.50875L26.4906 5.27625C26.845 5.63 27.04 6.10125 27.04 6.60187C27.04 7.1025 26.845 7.57375 26.4906 7.9275L24.8444 9.57438C25.2481 10.3044 25.5675 11.0744 25.7981 11.8744H28.125C29.1588 11.8744 30 12.7156 30 13.7494V16.2494C30 16.7506 29.805 17.2213 29.4513 17.575C29.0975 17.9288 28.6262 18.1244 28.125 18.1244H25.7975C25.5662 18.9244 25.2469 19.695 24.8438 20.4244L26.49 22.0712C27.2212 22.8025 27.2212 23.9912 26.49 24.7225L24.7225 26.4906C24.0138 27.1987 22.7794 27.1987 22.0706 26.4906L20.425 24.8438C19.695 25.2475 18.9244 25.5662 18.1256 25.7975V28.125C18.125 29.1588 17.2844 30 16.25 30ZM9.47312 23.4363C9.585 23.4363 9.69812 23.4663 9.79875 23.5275C10.6838 24.0688 11.6419 24.4662 12.6469 24.7094C12.9275 24.7775 13.125 25.0281 13.125 25.3169V28.125C13.125 28.47 13.4056 28.75 13.75 28.75H16.25C16.5944 28.75 16.875 28.47 16.875 28.125V25.3169C16.875 25.0281 17.0725 24.7775 17.3531 24.7094C18.3569 24.4662 19.315 24.07 20.2006 23.5281C20.4481 23.3775 20.7644 23.4156 20.9688 23.6194L22.955 25.6063C23.1894 25.84 23.6044 25.8413 23.8394 25.6063L25.6069 23.8381C25.8506 23.5944 25.8506 23.1981 25.6069 22.9544L23.62 20.9675C23.4156 20.7638 23.3781 20.4456 23.5287 20.1994C24.0694 19.3156 24.4662 18.3575 24.7094 17.3519C24.7769 17.0713 25.0281 16.8731 25.3169 16.8731H28.125C28.2919 16.8731 28.4494 16.8081 28.5675 16.69C28.685 16.5737 28.75 16.4169 28.75 16.2494V13.7494C28.75 13.4044 28.4694 13.1244 28.125 13.1244H25.3169C25.0281 13.1244 24.7769 12.9269 24.7094 12.6456C24.4669 11.6412 24.07 10.6831 23.5287 9.79813C23.3781 9.55188 23.4156 9.235 23.62 9.03L25.6069 7.04313C25.7231 6.92625 25.79 6.76562 25.79 6.60125C25.79 6.43688 25.7231 6.27562 25.6069 6.15937L23.8387 4.39187C23.6025 4.15625 23.1906 4.15625 22.9544 4.39187L20.9675 6.37875C20.7638 6.58375 20.4469 6.62188 20.1994 6.47C19.3162 5.93 18.3587 5.5325 17.3531 5.28938C17.0731 5.2225 16.875 4.97188 16.875 4.68313V1.875C16.875 1.53 16.5944 1.25 16.25 1.25H13.75C13.4056 1.25 13.125 1.53 13.125 1.875V4.68313C13.125 4.97188 12.9275 5.2225 12.6469 5.29063C11.6431 5.53312 10.685 5.93 9.79937 6.47125C9.5525 6.62188 9.23563 6.58437 9.03188 6.38L7.045 4.39313C6.80875 4.1575 6.39688 4.1575 6.16063 4.39313L4.39375 6.16063C4.15 6.40438 4.15 6.80062 4.39375 7.04437L6.38062 9.03125C6.585 9.235 6.6225 9.55313 6.47187 9.79937C5.93062 10.6844 5.53375 11.6425 5.29125 12.6462C5.22375 12.9269 4.9725 13.125 4.68375 13.125H1.875C1.70812 13.125 1.55063 13.19 1.4325 13.3081C1.315 13.425 1.25 13.5819 1.25 13.7494V16.2494C1.25 16.5944 1.53062 16.8744 1.875 16.8744H4.68313C4.97188 16.8744 5.22312 17.0719 5.29063 17.3531C5.53375 18.3581 5.93062 19.3162 6.47125 20.2C6.62188 20.4462 6.58437 20.7631 6.38 20.9681L4.39313 22.9556C4.27688 23.0725 4.21 23.2331 4.21 23.3975C4.21 23.5619 4.27688 23.7231 4.39313 23.8394L6.16125 25.6069C6.39687 25.8425 6.80937 25.8425 7.04562 25.6069L9.03188 23.62C9.15188 23.4988 9.31125 23.4363 9.47312 23.4363Z" fill="black"/>
<path d="M15.0001 21.2501C11.5538 21.2501 8.75006 18.4463 8.75006 15.0001C8.75006 11.5538 11.5538 8.75006 15.0001 8.75006C18.4463 8.75006 21.2501 11.5538 21.2501 15.0001C21.2501 18.4463 18.4469 21.2501 15.0001 21.2501ZM15.0001 10.0001C12.2432 10.0001 10.0001 12.2432 10.0001 15.0001C10.0001 17.7569 12.2432 20.0001 15.0001 20.0001C17.7569 20.0001 20.0001 17.7569 20.0001 15.0001C20.0001 12.2432 17.7576 10.0001 15.0001 10.0001Z" fill="black"/>
</svg>
